# xmcd
#
# Track frame offsets:
#	150
#	13587
#	28837
#	41465
#	57392
#	72537
#	85980
#	97655
#	110955
#	124335
#	137307
#	149150
#	162685
#	184450
#
# Disc length: 2669 seconds
#
# Revision: 0
# Processed by: cddbd v1.4PL0 Copyright (c) Steve Scherf et al.
# Submitted via: EasyCDDAExtractor 4.6.0.1
#
DISCID=d50a6b0e
DTITLE=Di Paulo and Paulino - Tô Por Aí
DYEAR=2001
DGENRE=Sertanejo
TTITLE0=Caso do passado
TTITLE1=Tô por aí
TTITLE2=Eu achei bão
TTITLE3=To indo embora
TTITLE4=El condor pasa (no céu dos teus braços)
TTITLE5=Acordei na madrugada
TTITLE6=Quetro tipo de mulher
TTITLE7=Tudo passa
TTITLE8=Não desista
TTITLE9=Saudade boa de briga
TTITLE10=Cai sereno
TTITLE11=Marcas do nosso amor
TTITLE12=Vaca estrela, boi fubá
TTITLE13=Amor de primavera
EXTD=
EXTT0=
EXTT1=
EXTT2=
EXTT3=
EXTT4=
EXTT5=
EXTT6=
EXTT7=
EXTT8=
EXTT9=
EXTT10=
EXTT11=
EXTT12=
EXTT13=
PLAYORDER=
